<mxfile host="app.diagrams.net" modified="2024-03-07T06:30:41.104Z" agent="Mozilla/5.0 (Windows NT 10.0; Win64; x64) AppleWebKit/537.36 (KHTML, like Gecko) Chrome/122.0.0.0 Safari/537.36" version="23.1.1" etag="G4ZTsRXQAMkUaHbEeSDw" type="github">
  <diagram name="第 1 页" id="pdR5Xilmt6f5LBmZIG5z">
    <mxGraphModel>
      <root>
        <mxCell id="0" />
        <mxCell id="1" parent="0" />
      </root>
    </mxGraphModel>
  </diagram>
</mxfile>
